<?xml version="1.0" encoding="UTF-8"?>
<svg version="1.1" xmlns="http://www.w3.org/2000/svg" width="1254" height="1254">
<path d="M0 0 C413.82 0 827.64 0 1254 0 C1254 413.82 1254 827.64 1254 1254 C840.18 1254 426.36 1254 0 1254 C0 840.18 0 426.36 0 0 Z " fill="#FDFDFD" transform="translate(0,0)"/>
<path d="M0 0 C0.99925507 -0.00902847 1.99851013 -0.01805695 3.02804565 -0.02735901 C5.13080877 -0.04180848 7.23361629 -0.05073499 9.33642578 -0.05444336 C12.55186912 -0.06639577 15.76542647 -0.11568084 18.98046875 -0.16601562 C21.02863651 -0.17547462 23.07681599 -0.18271216 25.125 -0.1875 C26.56264206 -0.21679848 26.56264206 -0.21679848 28.02932739 -0.24668884 C32.58146384 -0.21587908 34.7301564 -0.15833465 38.44873047 2.65600586 C41.58112446 6.94924638 42.66315967 9.65211154 42.9921875 14.984375 C43.10433594 16.60956055 43.10433594 16.60956055 43.21875 18.26757812 C43.32316406 19.95850586 43.32316406 19.95850586 43.4296875 21.68359375 C43.67974312 31.81212827 43.67974312 31.81212827 46.4296875 41.37109375 C49.04797411 42.60917379 50.97721451 43.26516445 53.7421875 43.87109375 C60.79644379 45.70464211 66.38876609 48.23991 72.66015625 52.015625 C75.77272401 53.53898327 77.04350011 54.12698475 80.4296875 53.37109375 C83.06549183 51.58569975 85.34897302 49.47013873 87.6796875 47.30859375 C89.01994705 46.11488958 90.36108857 44.9221749 91.703125 43.73046875 C93.83916211 41.80964139 95.96813401 39.88159692 98.09375 37.94921875 C101.58872234 34.96058516 104.32834584 32.93159679 108.9921875 32.49609375 C112.51377171 32.90525378 114.33450458 33.78983404 116.9375 36.171875 C117.9745105 37.12078613 117.9745105 37.12078613 119.0324707 38.08886719 C123.44290145 42.2877374 127.80863031 46.52555274 132.12231445 50.82348633 C133.74965965 52.44102085 135.38738357 54.04756909 137.02539062 55.65429688 C138.07357212 56.69595544 139.12112099 57.73825106 140.16796875 58.78125 C140.65235916 59.25329361 141.13674957 59.72533722 141.63581848 60.21168518 C145.1907931 63.79013615 147.81266562 67.5160603 148.890625 72.50390625 C148.55672443 80.24432857 143.00228386 84.71865048 137.87646484 89.89111328 C135.71670143 92.10044265 133.67987244 94.39189378 131.6796875 96.74609375 C131.02484375 97.49632812 130.37 98.2465625 129.6953125 99.01953125 C127.93554153 102.28922917 128.41682909 103.82826284 129.4296875 107.37109375 C130.48144369 109.93561213 131.56893161 112.42741171 132.7421875 114.93359375 C135.59815144 121.19628862 137.80155889 127.33975975 139.60546875 133.9921875 C140.17638549 136.53558077 140.17638549 136.53558077 142.4296875 137.37109375 C143.80901733 137.49895601 145.19358403 137.57307586 146.578125 137.6171875 C147.41335693 137.64844727 148.24858887 137.67970703 149.10913086 137.71191406 C149.99866455 137.74381836 150.88819824 137.77572266 151.8046875 137.80859375 C173.36157559 138.78556753 173.36157559 138.78556753 177.6171875 142.93359375 C178.2153125 143.73796875 178.8134375 144.54234375 179.4296875 145.37109375 C179.7596875 145.70109375 180.0896875 146.03109375 180.4296875 146.37109375 C180.54354947 147.8427287 180.58923461 149.31972432 180.60668945 150.7956543 C180.61952469 151.73720871 180.63235992 152.67876312 180.64558411 153.64884949 C180.65666451 155.18778618 180.65666451 155.18778618 180.66796875 156.7578125 C180.6760405 157.80757767 180.68411224 158.85734283 180.69242859 159.93891907 C180.70629096 162.16751443 180.71700343 164.39613121 180.72485352 166.62475586 C180.74202773 170.0269433 180.78589082 173.42814961 180.83007812 176.83007812 C180.84020795 178.99348242 180.84872315 181.156895 180.85546875 183.3203125 C180.87297684 184.33614914 180.89048492 185.35198578 180.90852356 186.39860535 C180.89076658 192.20911209 180.52936292 195.893108 176.4296875 200.37109375 C172.49098638 203.50973966 169.12043813 203.83619763 164.16015625 204.1015625 C163.47915359 204.14170975 162.79815094 204.18185699 162.09651184 204.22322083 C159.93722198 204.3476322 157.77748943 204.45338346 155.6171875 204.55859375 C154.14641554 204.64004242 152.67571065 204.72271199 151.20507812 204.80664062 C147.6139489 205.00892538 144.02218209 205.19449685 140.4296875 205.37109375 C140.10572998 206.14960693 139.78177246 206.92812012 139.44799805 207.73022461 C134.53294026 219.53527826 134.53294026 219.53527826 132.2421875 224.93359375 C131.75363281 226.08988281 131.26507812 227.24617187 130.76171875 228.4375 C129.4296875 231.37109375 129.4296875 231.37109375 127.4296875 234.37109375 C126.74883067 236.68141684 126.74883067 236.68141684 127.4296875 239.37109375 C129.2209823 242.05726185 131.36738827 244.37810458 133.5546875 246.74609375 C134.70327146 248.02460802 135.8517096 249.30325331 137 250.58203125 C138.71297244 252.47733826 140.42830352 254.36959056 142.15869141 256.24902344 C147.21237318 261.88238779 147.21237318 261.88238779 147.5546875 265.87109375 C147.63976562 266.56203125 147.72484375 267.25296875 147.8125 267.96484375 C146.84373409 274.05422949 142.46976856 278.70828756 138.25390625 282.91015625 C137.76565872 283.39890228 137.27741119 283.88764832 136.77436829 284.39120483 C135.74843934 285.41481154 134.71886072 286.43477242 133.68579102 287.45117188 C132.12271188 288.99065277 130.57338973 290.54302813 129.02539062 292.09765625 C115.04011838 306.04870107 115.04011838 306.04870107 108.6796875 306.24609375 C101.62290741 305.87243671 97.38421514 300.92816274 92.4296875 296.37109375 C90.41018811 294.67548238 88.35812847 293.02606622 86.3046875 291.37109375 C81.55276442 287.49417067 81.55276442 287.49417067 80.4296875 286.37109375 C74.77412675 285.70318243 71.05817442 287.68218312 66.1796875 290.18359375 C60.64152899 292.92522684 55.36600696 295.30048314 49.3125 296.703125 C46.90191861 297.55833126 45.9915692 298.32739488 44.4296875 300.37109375 C43.87889088 303.36713426 43.87889088 303.36713426 43.8046875 306.796875 C43.73765625 308.06853516 43.670625 309.34019531 43.6015625 310.65039062 C43.54270806 311.99472416 43.4854301 313.33912759 43.4296875 314.68359375 C43.32008606 317.3060632 43.19244575 319.92549441 43.0546875 322.546875 C42.98121094 324.2935144 42.98121094 324.2935144 42.90625 326.07543945 C42.23094507 330.74549129 40.92580908 333.98740066 37.43164062 337.21899414 C32.80215034 338.9957154 28.31631674 338.81869972 23.3984375 338.8046875 C22.3297644 338.80992935 21.26109131 338.8151712 20.16003418 338.8205719 C17.90406156 338.82698583 15.64805547 338.82566328 13.39208984 338.81713867 C9.94177743 338.80862359 6.49311791 338.8374089 3.04296875 338.86914062 C0.84895883 338.87075263 -1.34505402 338.87017512 -3.5390625 338.8671875 C-4.56938599 338.87842148 -5.59970947 338.88965546 -6.66125488 338.90122986 C-10.99955997 338.85903453 -13.80329534 338.8012271 -17.63476562 336.65258789 C-21.45110255 332.15414332 -21.89897753 327.87720271 -22.421875 322.1015625 C-22.48563324 321.42055984 -22.54939148 320.73955719 -22.61508179 320.03791809 C-22.81560021 317.87872617 -23.00560884 315.71875996 -23.1953125 313.55859375 C-23.3300343 312.08782681 -23.46544379 310.61712269 -23.6015625 309.14648438 C-23.93244008 305.55538002 -24.25390383 301.96350521 -24.5703125 298.37109375 C-25.81425781 297.93539063 -27.05820312 297.4996875 -28.33984375 297.05078125 C-36.74825122 294.05586707 -44.77433311 291.17243564 -52.34375 286.33984375 C-55.2766274 285.06378481 -56.57261453 285.30081828 -59.5703125 286.37109375 C-62.12979355 288.08347233 -62.12979355 288.08347233 -64.6328125 290.30859375 C-65.59058594 291.11039063 -66.54835938 291.9121875 -67.53515625 292.73828125 C-69.60867222 294.51558065 -71.63032908 296.33886319 -73.63671875 298.19140625 C-82.25310709 306.01412567 -82.25310709 306.01412567 -87.3203125 306.37109375 C-96.76658974 304.77701336 -103.80390456 295.44934229 -110.26293945 288.93920898 C-111.88988072 287.30147866 -113.52733157 285.67479973 -115.16601562 284.04882812 C-116.21418406 282.99933911 -117.26173248 281.94923041 -118.30859375 280.8984375 C-118.79298416 280.41809555 -119.27737457 279.9377536 -119.77644348 279.44285583 C-122.9965902 276.17803789 -126.10324742 272.88857455 -126.9609375 268.265625 C-126.52370747 261.79219143 -123.61735198 258.66954755 -119.20703125 254.1171875 C-116.29304436 251.08232412 -113.58608232 247.95594416 -110.9453125 244.68359375 C-110.49551025 244.16120117 -110.04570801 243.63880859 -109.58227539 243.10058594 C-107.19328043 240.10362873 -106.56485814 238.59282538 -106.66015625 234.71875 C-107.44409803 231.83532464 -108.1335506 229.94562787 -109.7578125 227.49609375 C-112.86297997 222.29969105 -114.68072404 216.75748243 -116.60229492 211.04736328 C-117.5853709 207.4289237 -117.5853709 207.4289237 -119.5703125 204.37109375 C-121.08577211 204.22567559 -122.60744531 204.14388903 -124.12890625 204.08984375 C-125.07314453 204.05246094 -126.01738281 204.01507812 -126.99023438 203.9765625 C-127.98603516 203.94175781 -128.98183594 203.90695312 -130.0078125 203.87109375 C-150.3042412 203.13601183 -150.3042412 203.13601183 -154.5703125 200.55859375 C-157.78486209 197.04268014 -158.8171652 194.33790257 -158.86083984 189.59008789 C-158.87359955 188.64553238 -158.88635925 187.70097687 -158.89950562 186.72779846 C-158.90173126 185.71418747 -158.90395691 184.70057648 -158.90625 183.65625 C-158.9129068 182.608358 -158.9195636 181.560466 -158.92642212 180.4808197 C-158.93654143 178.26595819 -158.94123936 176.05106624 -158.94091797 173.83618164 C-158.94529193 170.44952159 -158.98162254 167.06416396 -159.01953125 163.67773438 C-159.02539937 161.52474404 -159.0293688 159.37174751 -159.03125 157.21875 C-159.04562103 156.20716324 -159.05999207 155.19557648 -159.07479858 154.15333557 C-159.04633972 149.77018216 -159.0278414 147.12969875 -156.72900391 143.31811523 C-152.83223871 139.80344633 -150.48490346 139.08618125 -145.328125 138.80859375 C-143.48154297 138.69644531 -143.48154297 138.69644531 -141.59765625 138.58203125 C-140.30988281 138.51242187 -139.02210938 138.4428125 -137.6953125 138.37109375 C-135.15581761 138.23299433 -132.61671412 138.08744764 -130.078125 137.93359375 C-128.95035645 137.87300781 -127.82258789 137.81242188 -126.66064453 137.75 C-123.5744606 137.37160235 -121.30585316 136.84454778 -118.5703125 135.37109375 C-117.46227344 132.77365802 -116.69652007 130.51344215 -116.0078125 127.80859375 C-115.59639421 126.35174436 -115.18104607 124.89599889 -114.76171875 123.44140625 C-114.5620752 122.73918945 -114.36243164 122.03697266 -114.15673828 121.31347656 C-112.67650099 116.41057571 -110.57033026 111.88836208 -107.7578125 107.62109375 C-106.38371529 105.46823389 -106.38371529 105.46823389 -106.64453125 103.15625 C-107.96726927 99.17687358 -110.41637651 96.64035983 -113.1953125 93.55859375 C-113.73712158 92.93839355 -114.27893066 92.31819336 -114.8371582 91.67919922 C-117.13761432 89.05354054 -119.46746221 86.47810661 -121.88671875 83.9609375 C-124.79323528 80.90879175 -126.92417334 78.51686838 -127.7578125 74.30859375 C-127.38505992 66.4807896 -122.23343188 61.59780453 -116.90625 56.37890625 C-116.27296783 55.74749725 -115.63968567 55.11608826 -114.98721313 54.46554565 C-113.65774769 53.14276228 -112.32470943 51.82356094 -110.98828125 50.5078125 C-108.93739314 48.48829552 -106.89757052 46.45810019 -104.859375 44.42578125 C-103.56312472 43.13869344 -102.26627098 41.85221305 -100.96875 40.56640625 C-100.35728119 39.95918732 -99.74581238 39.35196838 -99.11581421 38.72634888 C-95.601222 35.2712531 -93.50165451 33.22247424 -88.5703125 32.80859375 C-81.93136343 32.9246962 -78.25498678 37.08870452 -73.5703125 41.37109375 C-71.76334595 42.99930442 -69.94962362 44.61855783 -68.1237793 46.22558594 C-66.8975042 47.30697991 -65.68234092 48.40113129 -64.47973633 49.50878906 C-62.04550178 51.67023644 -60.20186052 53.24705658 -56.96484375 53.8828125 C-54.0889132 53.26821723 -52.08703248 52.20666971 -49.5703125 50.68359375 C-41.64850175 46.14918787 -33.20687368 43.23769065 -24.5703125 40.37109375 C-24.50038086 39.46866943 -24.43044922 38.56624512 -24.35839844 37.63647461 C-24.08856981 34.25992935 -23.80349819 30.88537207 -23.50830078 27.51098633 C-23.38408798 26.0557608 -23.26581258 24.6000149 -23.15380859 23.14379883 C-21.9263396 7.28989616 -21.9263396 7.28989616 -17.5703125 2.37109375 C-11.74546701 0.14425522 -6.18676101 0.03476369 0 0 Z " fill="#076AD4" transform="translate(845.5703125,713.62890625)"/>
<path d="M0 0 C1.73305724 0.00186882 3.46611501 0.00329053 5.19917297 0.00428772 C9.72493998 0.00807641 14.25067407 0.01787486 18.77642822 0.0289917 C24.2256782 0.04109981 29.67493929 0.04562545 35.12419891 0.05144501 C43.37058247 0.06108912 51.61689404 0.08027103 59.86328125 0.09765625 C59.86328125 13.95765625 59.86328125 27.81765625 59.86328125 42.09765625 C54.18109375 42.13503906 48.49890625 42.17242187 42.64453125 42.2109375 C39.03512648 42.24122952 35.42577028 42.27238543 31.81640625 42.30664062 C26.09312444 42.36087638 20.36993872 42.41198987 14.64648438 42.4440918 C10.02976753 42.47018692 5.41337508 42.51063302 0.79685974 42.56084251 C-0.96045381 42.57746932 -2.71782341 42.58900959 -4.47520447 42.59527016 C-6.94540043 42.60495706 -9.41477432 42.6330698 -11.88476562 42.6652832 C-12.96371094 42.66313057 -12.96371094 42.66313057 -14.06445312 42.66093445 C-22.86542665 42.82223122 -30.4069853 46.53988715 -37.13671875 52.09765625 C-46.42460274 61.79873431 -48.28801422 72.09387866 -48.27931976 85.1204071 C-48.28257078 86.13109491 -48.2858218 87.14178271 -48.28917134 88.18309742 C-48.29887089 91.58520623 -48.30146312 94.98728319 -48.30407715 98.3894043 C-48.30952377 100.84711168 -48.31538726 103.30481817 -48.32163286 105.76252365 C-48.33582633 111.81870503 -48.34530111 117.87487793 -48.35272156 123.93107007 C-48.35905023 128.96800389 -48.36771225 134.00492928 -48.3778801 139.04185677 C-48.3793471 139.76886007 -48.38081409 140.49586338 -48.38232555 141.24489709 C-48.38532619 142.72765331 -48.38833043 144.21040952 -48.39133821 145.69316573 C-48.42985273 164.89199785 -48.45487161 184.09084336 -48.47751531 203.28969979 C-48.48045945 205.777295 -48.48344946 208.26489014 -48.48645329 210.75248528 C-48.5246076 242.40606883 -48.55811066 274.05965728 -48.57971245 305.71325676 C-48.58520638 313.75789394 -48.59090599 321.80253098 -48.59667969 329.84716797 C-48.59731211 330.73606111 -48.59794454 331.62495426 -48.59859613 332.54078355 C-48.61927516 361.35846521 -48.66524417 390.17603419 -48.72533237 418.99365862 C-48.78700679 448.62605427 -48.82592624 478.25838956 -48.83521569 507.89085038 C-48.8365324 512.07734964 -48.83809434 516.26384878 -48.83979797 520.4503479 C-48.84012343 521.27426581 -48.8404489 522.09818373 -48.84078422 522.94706885 C-48.84665694 536.19788655 -48.87621441 549.44854997 -48.91450419 562.69930919 C-48.95245501 576.02260725 -48.96463686 589.345735 -48.95074159 602.66908151 C-48.9432527 610.58039503 -48.95515434 618.4911176 -48.99516476 626.40233651 C-49.02290634 632.31612684 -49.01388261 638.22949621 -48.99079829 644.14331877 C-48.98715213 646.53100316 -48.99529269 648.91874162 -49.01657981 651.3063339 C-49.14835497 667.0375243 -48.07094188 679.70774352 -36.73828125 691.70703125 C-29.00305671 698.42347012 -20.63276045 701.20814151 -10.4477253 701.23632145 C-8.77345126 701.24453312 -8.77345126 701.24453312 -7.06535351 701.25291067 C-5.84939995 701.25388878 -4.63344639 701.25486689 -3.38064575 701.25587463 C-1.43122678 701.2632816 -1.43122678 701.2632816 0.55757439 701.2708382 C4.15831405 701.28438815 7.75904428 701.29182854 11.35980272 701.29826486 C15.24522533 701.30628264 19.13062844 701.31997567 23.01603699 701.33297729 C29.74560814 701.3547205 36.47518129 701.37287286 43.20476913 701.38858223 C52.93460796 701.4113005 62.66442517 701.43944061 72.39424564 701.46890151 C88.18046411 701.51655342 103.96669142 701.55982411 119.75292969 701.6003418 C135.08724658 701.63970894 150.42155562 701.68113809 165.75585938 701.7253418 C166.70116063 701.72806607 167.64646189 701.73079034 168.62040864 701.73359717 C173.36273552 701.74727685 178.10506228 701.76099708 182.84738898 701.77473748 C222.18600339 701.88866455 261.52463467 701.99548224 300.86328125 702.09765625 C301.05727509 702.76954483 301.25126892 703.44143341 301.45114136 704.13368225 C301.71202545 705.02292892 301.97290955 705.9121756 302.24169922 706.82836914 C302.49756805 707.70650772 302.75343689 708.5846463 303.01705933 709.48939514 C304.28295377 713.3911887 306.04407187 716.93303792 307.98828125 720.53515625 C308.3757251 721.26089844 308.76316895 721.98664062 309.16235352 722.734375 C314.94222778 733.4280085 314.94222778 733.4280085 323.86328125 741.09765625 C323.86328125 741.75765625 323.86328125 742.41765625 323.86328125 743.09765625 C280.44769983 743.1205454 237.03211904 743.13816608 193.61653278 743.14872158 C188.49085583 743.14997229 183.36517889 743.15126661 178.23950195 743.15258789 C177.2190725 743.1528502 176.19864304 743.15311251 175.14729147 743.15338277 C158.62492809 743.157734 142.10256819 743.16561856 125.58020688 743.17480905 C108.62658759 743.18416076 91.67297013 743.18971508 74.71934837 743.19174474 C64.25819085 743.19311681 53.79704317 743.19745033 43.33588868 743.20557272 C36.16216637 743.21085888 28.98844916 743.21245627 21.81472505 743.21115763 C17.67598376 743.21051718 13.53725966 743.21149864 9.39852142 743.21686172 C5.6065248 743.22173954 1.81455688 743.22196616 -1.97744108 743.21855514 C-3.99288971 743.21793474 -6.00833802 743.2222372 -8.02378172 743.22673756 C-31.68910815 743.18777194 -51.18722433 735.61849133 -68.31640625 718.98046875 C-81.86115429 704.59246791 -90.65852881 685.09651503 -90.51703548 665.27505112 C-90.5216954 664.2386332 -90.52635532 663.20221529 -90.53115645 662.13439077 C-90.54307094 658.6747292 -90.53372445 655.21546292 -90.5243988 651.75579834 C-90.52857326 649.24498928 -90.53405139 646.7341821 -90.54071862 644.22337842 C-90.55216057 638.77109589 -90.55430777 633.31893278 -90.54816818 627.86664391 C-90.53906256 619.75859543 -90.54712088 611.6506263 -90.55845942 603.5425839 C-90.57811437 589.05893563 -90.58047593 574.57532317 -90.57526422 560.09166475 C-90.57070478 547.41418571 -90.57130904 534.73672083 -90.57710457 522.05924225 C-90.57786144 520.35785461 -90.57861742 518.65646697 -90.57937251 516.95507933 C-90.58051773 514.39113843 -90.58166761 511.82719753 -90.58283176 509.26325663 C-90.59353526 485.4288946 -90.59826362 461.59453728 -90.5903616 437.7601738 C-90.59006442 436.86191635 -90.58976725 435.96365891 -90.58946107 435.03818154 C-90.58701221 427.74399921 -90.58440058 420.44981694 -90.58177694 413.15563468 C-90.57167656 384.70969106 -90.58002655 356.26380648 -90.60327148 327.81787109 C-90.6293554 295.84613245 -90.64218886 263.87442936 -90.63508373 231.90267968 C-90.63436769 228.4922309 -90.6336933 225.08178211 -90.63304329 221.67133331 C-90.63287348 220.83161752 -90.63270367 219.99190173 -90.63252872 219.12674 C-90.63022761 206.46171526 -90.63819378 193.79672357 -90.65133476 181.13170624 C-90.6662576 166.7238208 -90.66707374 152.31601269 -90.64926385 137.90812889 C-90.63971315 129.85052655 -90.64111043 121.79310468 -90.65849854 113.73551445 C-90.67025158 107.71119046 -90.66098101 101.68708829 -90.64367617 95.66276982 C-90.63991212 93.23148928 -90.64284972 90.80018683 -90.65328782 88.36892578 C-90.71714246 72.35279557 -89.98763317 58.07649396 -82.26171875 43.66015625 C-81.74291138 42.65879639 -81.74291138 42.65879639 -81.21362305 41.63720703 C-78.62699821 36.75301909 -75.73770709 32.30035215 -72.13671875 28.09765625 C-71.00943359 26.67646484 -71.00943359 26.67646484 -69.859375 25.2265625 C-61.46454126 15.18705846 -50.09749614 8.90393878 -38.13671875 4.09765625 C-37.29238281 3.74960937 -36.44804687 3.4015625 -35.578125 3.04296875 C-24.38441367 -1.14719057 -11.76383993 -0.03756476 0 0 Z " fill="#0E2952" transform="translate(383.13671875,273.90234375)"/>
<path d="M0 0 C1.49579103 1.29352212 2.97671707 2.60456958 4.4375 3.9375 C5.05753906 4.46601563 5.67757812 4.99453125 6.31640625 5.5390625 C15.65443916 14.0205868 23.69608454 28.00115531 24.99438477 40.62792969 C25.12128441 41.83965851 25.12128441 41.83965851 25.25074768 43.0758667 C25.31237595 43.69020569 25.37400421 44.30454468 25.4375 44.9375 C26.05644638 44.92861755 26.67539276 44.91973511 27.31309509 44.9105835 C33.78619095 44.82172247 40.25911201 44.76160548 46.73266602 44.71777344 C49.14484705 44.69772448 51.55697989 44.67047808 53.96899414 44.63574219 C57.44689873 44.58692949 60.92415772 44.56446317 64.40234375 44.546875 C66.00601051 44.51590729 66.00601051 44.51590729 67.64207458 44.48431396 C76.03524967 44.48182883 81.81371575 46.42872629 88.6875 51.1875 C94.74944913 57.24944913 97.53913239 62.97852418 97.63037109 71.56103516 C97.63854858 72.22976654 97.64672607 72.89849792 97.65515137 73.5874939 C97.67995867 75.80050781 97.69651351 78.01345754 97.7109375 80.2265625 C97.71626118 80.98485729 97.72158485 81.74315208 97.72706985 82.52442551 C97.75378723 86.54182676 97.77316251 90.55919717 97.78759766 94.57666016 C97.80090918 97.89009376 97.82871099 101.20290746 97.86962891 104.51611328 C97.919153 108.52672459 97.9437431 112.53677592 97.95082474 116.5476799 C97.95750608 118.06981903 97.97264636 119.59194719 97.99671555 121.11391068 C98.12607712 129.79223001 97.9348577 136.84438994 92.4375 143.9375 C91.84586437 144.7341315 91.25422874 145.530763 90.64466476 146.35153484 C85.57002491 152.29709996 79.14502958 154.86202611 71.49262619 155.47998238 C65.30506712 155.77510147 59.11978152 155.71498459 52.92724609 155.66625977 C50.54763825 155.66948233 48.16803274 155.67530447 45.78843689 155.68351746 C39.35249617 155.69800533 32.91718373 155.67516917 26.48131895 155.64465833 C20.41904033 155.61824297 14.35674857 155.62317351 8.2944258 155.62448429 C-3.71691117 155.62598274 -15.72800761 155.59859309 -27.73925781 155.55493164 C-39.37504455 155.51265737 -51.01061978 155.49142044 -62.64648438 155.4934082 C-63.72203419 155.49358801 -63.72203419 155.49358801 -64.81931229 155.49377144 C-65.5351484 155.4938925 -66.25098452 155.49401357 -66.98851264 155.4941383 C-80.26610171 155.49621153 -93.54360156 155.47851906 -106.82116164 155.45167865 C-111.50390373 155.44265765 -116.18662258 155.43947619 -120.86937332 155.43808174 C-127.17814446 155.43506153 -133.48669481 155.41669097 -139.79539299 155.38658333 C-142.10682129 155.37784404 -144.418275 155.37412498 -146.72971916 155.37586594 C-149.89187331 155.377346 -153.05341599 155.36029485 -156.21548462 155.33863831 C-157.1236712 155.34328411 -158.03185779 155.34792992 -158.96756518 155.35271651 C-167.87509645 155.25240446 -176.23107585 153.5519431 -182.66052246 147.07678223 C-189.83651284 139.00546258 -190.29078856 130.48594675 -190.15625 120.09375 C-190.15453415 118.67468365 -190.15460938 117.25561414 -190.15637207 115.83654785 C-190.15472844 112.87786073 -190.13621046 109.9199401 -190.10449219 106.96142578 C-190.06481709 103.19585187 -190.06045305 99.43127832 -190.06795502 95.66553497 C-190.07104528 92.73983832 -190.05883184 89.8143606 -190.04182434 86.88871765 C-190.03486366 85.50145341 -190.03166125 84.11416438 -190.03251648 82.72688293 C-190.02292225 72.48952909 -189.7917936 62.49907839 -182.5 54.625 C-181.80777344 53.84511719 -181.11554688 53.06523437 -180.40234375 52.26171875 C-172.94313745 46.15686628 -166.03869994 44.19198031 -156.5234375 44.44921875 C-155.01313461 44.45983086 -155.01313461 44.45983086 -153.47232056 44.47065735 C-150.29325336 44.49838509 -147.11602423 44.56108219 -143.9375 44.625 C-141.76695273 44.65011082 -139.59637753 44.67291908 -137.42578125 44.69335938 C-132.13740609 44.74813995 -126.8500844 44.83154457 -121.5625 44.9375 C-121.35647408 44.00960159 -121.35647408 44.00960159 -121.14628601 43.06295776 C-120.96612442 42.25182526 -120.78596283 41.44069275 -120.6003418 40.60498047 C-120.42174118 39.80075653 -120.24314056 38.99653259 -120.05912781 38.16793823 C-117.02561832 24.5439417 -110.28767434 14.86182467 -100.5625 4.9375 C-99.91023437 4.24914062 -99.25796875 3.56078125 -98.5859375 2.8515625 C-72.03067343 -23.08852171 -28.38110838 -22.14586487 0 0 Z " fill="#0D2951" transform="translate(656.5625,204.0625)"/>
<path d="M0 0 C17.73700679 -0.12032643 17.73700679 -0.12032643 25.36328125 -0.14648438 C30.54420317 -0.16433976 35.72496433 -0.18534253 40.90576172 -0.22631836 C45.08792113 -0.25918454 49.26990788 -0.27690976 53.45218658 -0.28463173 C55.03879764 -0.29012677 56.62540046 -0.30085557 58.21193695 -0.31719017 C70.6313173 -0.43984056 81.71286289 1.09189693 93.125 6.25 C94.14219116 6.70451538 94.14219116 6.70451538 95.17993164 7.16821289 C100.94877153 9.82700313 106.04527965 13.01184197 111 17 C111.74378906 17.56976563 112.48757813 18.13953125 113.25390625 18.7265625 C122.89392254 26.60622799 130.0929615 37.63739037 135 49 C135.29390625 49.61488281 135.5878125 50.22976563 135.890625 50.86328125 C140.70611039 61.88696593 140.29381026 75.38820266 140.24050903 87.167099 C140.24138376 88.63197531 140.24313961 90.09685132 140.24568737 91.56172568 C140.2501126 95.54123059 140.2422246 99.52062575 140.23213124 103.50011671 C140.22342857 107.80868648 140.22642169 112.11725093 140.22793579 116.42582703 C140.22898036 123.87553796 140.2227487 131.32521363 140.21146011 138.7749157 C140.19514976 149.54569733 140.18999146 160.31646206 140.18748413 171.08725471 C140.18311568 188.56558505 140.16982973 206.04389663 140.15087891 223.5222168 C140.13249805 240.49259345 140.11835236 257.462965 140.10986328 274.43334961 C140.10933783 275.4808312 140.10881239 276.52831279 140.10827102 277.60753625 C140.10566079 282.86286978 140.10313341 288.11820335 140.10064721 293.37353694 C140.0799412 336.91570428 140.04473892 380.45785117 140 424 C136.62679384 422.89393305 133.40343337 421.82706202 130.265625 420.16015625 C129.28831421 419.65077515 129.28831421 419.65077515 128.29125977 419.13110352 C127.61764404 418.77846436 126.94402832 418.4258252 126.25 418.0625 C118.73978181 414.23145645 111.78134881 411.38438869 103.34350586 410.47045898 C102.12442787 410.33763771 102.12442787 410.33763771 100.88072205 410.20213318 C100.26008377 410.13542923 99.6394455 410.06872528 99 410 C98.99940291 409.28897918 98.99880582 408.57795836 98.99819064 407.84539145 C98.96228594 365.69158523 98.90563043 323.53785128 98.82207905 281.38411127 C98.81206176 276.32109725 98.8022176 271.25808292 98.79248047 266.19506836 C98.7905391 265.18712598 98.78859772 264.1791836 98.78659752 263.14069752 C98.75558812 246.82661925 98.73859982 230.51255504 98.72680578 214.19845285 C98.71438874 197.45496591 98.68687481 180.71155269 98.64538693 163.96811229 C98.62026742 153.63898513 98.6068816 143.30998026 98.60857043 132.98082212 C98.60860021 125.89486567 98.59394744 118.80903366 98.56783572 111.72312572 C98.55320811 107.63672246 98.54497102 103.5505744 98.55419731 99.46414948 C98.56251307 95.71750527 98.55225119 91.97137277 98.52766338 88.22480426 C98.51933459 86.23868321 98.53048604 84.25250938 98.54249835 82.26640719 C98.43538162 71.04448687 95.8861169 61.28679721 88 53 C85.47887742 50.70274031 82.94061479 48.72921451 80 47 C79.46277313 46.67249756 78.92554626 46.34499512 78.37203979 46.00756836 C70.81576577 42.00403031 62.91127189 42.39516046 54.58984375 42.390625 C53.01085227 42.3756221 51.43187636 42.35889056 49.85292053 42.34051514 C45.72497789 42.29706562 41.59724686 42.27689271 37.46911621 42.26177979 C32.50117657 42.23866362 27.53346765 42.18626014 22.56571198 42.13883972 C15.0437482 42.07027972 7.522445 42.03862616 0 42 C0 28.14 0 14.28 0 0 Z " fill="#0E2952" transform="translate(779,274)"/>
<path d="M0 0 C1.07507813 0.44601562 2.15015625 0.89203125 3.2578125 1.3515625 C22.98157952 10.38111313 35.69293151 27.52807104 43.18603516 47.35571289 C49.43418071 64.84651235 47.02670019 85.7779964 40.25 102.75 C30.5735044 122.51716026 14.59082793 137.38443771 -6 145 C-24.14238012 150.98357842 -44.8013691 149.69199386 -61.86743164 141.26391602 C-81.44653708 131.05781273 -94.7088209 114.81508226 -101.8125 94 C-107.89345536 74.63103107 -105.21145976 53.87251177 -96.43359375 35.76953125 C-85.38974015 15.96234139 -68.70589318 2.57198937 -47 -4 C-31.02899852 -6.6421994 -14.98941274 -6.30957463 0 0 Z " fill="#FBFCFC" transform="translate(489,417)"/>
<path d="M0 0 C1.49562424 1.29371497 2.9765983 2.60469975 4.4375 3.9375 C5.35015625 4.71287109 5.35015625 4.71287109 6.28125 5.50390625 C19.66172743 17.63756647 27.10433304 36.28890878 28.4375 53.9375 C28.50839844 54.84757813 28.57929687 55.75765625 28.65234375 56.6953125 C29.32912633 74.83308573 22.82787115 92.92591373 11.4375 106.9375 C10.42042969 108.19820312 10.42042969 108.19820312 9.3828125 109.484375 C4.08171315 115.70986534 -1.72693128 120.4769172 -8.5625 124.9375 C-9.65498047 125.66259766 -9.65498047 125.66259766 -10.76953125 126.40234375 C-25.02566694 135.10414086 -45.44163731 137.55544573 -61.78515625 134.18359375 C-65.43901861 133.23574543 -68.99234982 132.16143049 -72.5625 130.9375 C-73.92955078 130.48697266 -73.92955078 130.48697266 -75.32421875 130.02734375 C-92.57323027 123.7722077 -106.46149413 110.23177833 -114.5625 93.9375 C-123.34494068 74.74696398 -125.70322578 53.4651209 -118.375 33.3125 C-109.42408071 11.80941694 -94.82826133 -3.06716073 -73.51464844 -12.28027344 C-49.27708287 -21.99227445 -20.16939401 -15.71442952 0 0 Z " fill="#FAFCFD" transform="translate(506.5625,602.0625)"/>
<path d="M0 0 C11.67077253 10.56019818 18.84370528 22.78938042 22.33984375 38.1171875 C22.67628906 39.34115234 22.67628906 39.34115234 23.01953125 40.58984375 C25.10384705 48.9128308 24.50678264 57.6033039 24.33984375 66.1171875 C23.67984375 66.1171875 23.01984375 66.1171875 22.33984375 66.1171875 C22.27796875 67.3546875 22.21609375 68.5921875 22.15234375 69.8671875 C20.29189791 86.32696532 8.85971461 100.90136159 -3.34765625 111.3046875 C-19.68197484 123.8015773 -38.55435854 128.23670711 -58.77490234 125.86962891 C-74.31829144 123.5263071 -90.53682228 115.36160096 -100.66015625 103.1171875 C-101.3871875 102.25609375 -102.11421875 101.395 -102.86328125 100.5078125 C-108.67476208 93.2338398 -112.52606063 85.86653776 -115.66015625 77.1171875 C-116.00046875 76.21097656 -116.34078125 75.30476562 -116.69140625 74.37109375 C-122.31070293 56.44657795 -119.33174574 36.38118568 -110.97973633 19.98242188 C-101.72662372 2.74147321 -86.54567863 -9.05069304 -68.07421875 -15.046875 C-43.37900101 -20.87996175 -19.57946018 -16.39354486 0 0 Z " fill="#FCFDFD" transform="translate(903.66015625,828.8828125)"/>
<path d="M0 0 C1.07507813 0.44601562 2.15015625 0.89203125 3.2578125 1.3515625 C22.98157952 10.38111313 35.69293151 27.52807104 43.18603516 47.35571289 C49.43418071 64.84651235 47.02670019 85.7779964 40.25 102.75 C30.5735044 122.51716026 14.59082793 137.38443771 -6 145 C-24.14238012 150.98357842 -44.8013691 149.69199386 -61.86743164 141.26391602 C-81.44653708 131.05781273 -94.7088209 114.81508226 -101.8125 94 C-107.89345536 74.63103107 -105.21145976 53.87251177 -96.43359375 35.76953125 C-85.38974015 15.96234139 -68.70589318 2.57198937 -47 -4 C-31.02899852 -6.6421994 -14.98941274 -6.30957463 0 0 Z M-72.44140625 29.1328125 C-76.27655387 33.43051991 -79.24251916 37.95752802 -82 43 C-82.39703125 43.66386719 -82.7940625 44.32773437 -83.203125 45.01171875 C-90.58562805 58.15147232 -90.61814249 73.95304452 -86.83007812 88.17016602 C-82.17511107 104.18815675 -72.15019435 117.01112788 -57.63671875 125.359375 C-43.53298348 132.81702662 -28.63370116 134.24882281 -13.1875 130.09765625 C-2.44246309 126.39746584 6.09769562 121.13731715 14 113 C14.54914063 112.47148438 15.09828125 111.94296875 15.6640625 111.3984375 C19.30313432 107.60368346 21.74793317 103.14718606 24.25 98.5625 C24.76264404 97.63123291 24.76264404 97.63123291 25.28564453 96.68115234 C31.75044252 84.37967576 32.21678178 67.90270791 29.125 54.484375 C24.33044163 39.15440549 14.67815712 26.07440347 0.49609375 18.2421875 C-24.44022057 5.83256629 -52.64328491 9.13165115 -72.44140625 29.1328125 Z " fill="#0FABA1" transform="translate(489,417)"/>
<path d="M0 0 C1.49562424 1.29371497 2.9765983 2.60469975 4.4375 3.9375 C5.35015625 4.71287109 5.35015625 4.71287109 6.28125 5.50390625 C19.66172743 17.63756647 27.10433304 36.28890878 28.4375 53.9375 C28.50839844 54.84757813 28.57929687 55.75765625 28.65234375 56.6953125 C29.32912633 74.83308573 22.82787115 92.92591373 11.4375 106.9375 C10.42042969 108.19820312 10.42042969 108.19820312 9.3828125 109.484375 C4.08171315 115.70986534 -1.72693128 120.4769172 -8.5625 124.9375 C-9.65498047 125.66259766 -9.65498047 125.66259766 -10.76953125 126.40234375 C-25.02566694 135.10414086 -45.44163731 137.55544573 -61.78515625 134.18359375 C-65.43901861 133.23574543 -68.99234982 132.16143049 -72.5625 130.9375 C-73.92955078 130.48697266 -73.92955078 130.48697266 -75.32421875 130.02734375 C-92.57323027 123.7722077 -106.46149413 110.23177833 -114.5625 93.9375 C-123.34494068 74.74696398 -125.70322578 53.4651209 -118.375 33.3125 C-109.42408071 11.80941694 -94.82826133 -3.06716073 -73.51464844 -12.28027344 C-49.27708287 -21.99227445 -20.16939401 -15.71442952 0 0 Z M-56.03125 -0.078125 C-67.21100129 0.35186543 -79.66592472 7.40963641 -87.5625 14.9375 C-88.30757813 15.63101563 -89.05265625 16.32453125 -89.8203125 17.0390625 C-102.11655001 29.50202865 -107.00754612 44.6560916 -106.99853516 61.78442383 C-106.67266778 77.76445884 -99.8033299 91.0348174 -88.98828125 102.61328125 C-77.79553077 113.33741416 -64.44392959 119.06232196 -48.9375 119.1875 C-46.47874383 119.11774805 -44.02028427 119.03570226 -41.5625 118.9375 C-40.26892578 118.96070313 -40.26892578 118.96070313 -38.94921875 118.984375 C-26.80242748 118.7393977 -13.62389556 109.94735308 -5.265625 101.66015625 C5.73433352 89.99516756 11.61506166 76.72091859 11.625 60.75 C11.63724609 59.73357422 11.64949219 58.71714844 11.66210938 57.66992188 C11.6903806 43.0725453 6.67529849 29.51315465 -3.015625 18.47265625 C-15.0377055 6.50589207 -28.63681548 -0.20723383 -45.5625 -0.25 C-49.0531753 -0.20131332 -52.5401489 -0.05602942 -56.03125 -0.078125 Z " fill="#0A6AD3" transform="translate(506.5625,602.0625)"/>
<path d="M0 0 C17.68032851 11.40591114 30.0122779 27.63644011 35.0703125 48.15625 C39.38626021 68.58464035 34.8642769 88.66256337 23.703125 105.98828125 C17.3537037 115.32379402 9.72915504 123.13261295 -0.0390625 128.91015625 C-0.9053125 129.4309375 -1.7715625 129.95171875 -2.6640625 130.48828125 C-21.85290215 141.04214306 -42.88961514 142.45496555 -63.77001953 136.64208984 C-82.50982516 130.59712134 -97.36101575 116.10428266 -106.28393555 98.86279297 C-114.98766492 81.0561823 -117.57788206 60.67750341 -111.484375 41.5234375 C-106.37846401 28.75866002 -99.97802008 18.42147322 -90.0390625 8.91015625 C-89.31460937 8.21277344 -88.59015625 7.51539063 -87.84375 6.796875 C-79.84567253 -0.52685476 -71.26862514 -4.58966227 -61.0390625 -8.08984375 C-60.29495117 -8.35240967 -59.55083984 -8.61497559 -58.78417969 -8.88549805 C-38.56126236 -15.57520074 -17.94300778 -10.28220219 0 0 Z M-85.0390625 25.91015625 C-96.5078437 40.90620649 -99.51445406 56.41184834 -98.0390625 74.91015625 C-97.18760107 79.51265046 -95.86794448 83.61046682 -94.0390625 87.91015625 C-93.54792969 89.19019531 -93.54792969 89.19019531 -93.046875 90.49609375 C-88.61617917 100.74814178 -79.49152387 110.07621525 -70.0390625 115.91015625 C-69.3171875 116.35875 -68.5953125 116.80734375 -67.8515625 117.26953125 C-53.74730203 125.15678217 -37.28610938 125.51537074 -21.96923828 121.50097656 C-6.30999048 116.7077335 4.82482553 106.73655511 12.9609375 92.91015625 C14.04529156 90.60252296 15.00200788 88.27551598 15.9609375 85.91015625 C16.4971875 84.71390625 17.0334375 83.51765625 17.5859375 82.28515625 C22.20006237 70.95957703 21.47436705 55.27561639 17.359375 43.9375 C9.44969749 26.81459477 -1.76567325 15.56145619 -19.0390625 7.91015625 C-43.47635582 0.14707873 -67.97127561 6.89593156 -85.0390625 25.91015625 Z " fill="#FD9F23" transform="translate(498.0390625,768.08984375)"/>
<path d="M0 0 C1.3879444 -0.00679667 1.3879444 -0.00679667 2.80392808 -0.01373065 C5.91769064 -0.02643404 9.03127963 -0.02475045 12.14506531 -0.02310181 C14.37219977 -0.02908338 16.59933216 -0.03588807 18.82646179 -0.04345703 C24.88642214 -0.06116283 30.94632604 -0.06581436 37.00630975 -0.0670886 C42.06105848 -0.06898505 47.11579399 -0.07633973 52.17053765 -0.08343279 C63.41324193 -0.0988004 74.65591948 -0.10476915 85.89863107 -0.10342209 C86.57340652 -0.10334218 87.24818196 -0.10326227 87.94340515 -0.10317993 C88.61900434 -0.10309817 89.29460352 -0.10301641 89.99067541 -0.10293217 C100.937553 -0.10211943 111.88429294 -0.12125301 122.83113072 -0.14945666 C134.07036494 -0.17818517 145.30953408 -0.19163068 156.54881257 -0.19026911 C162.85915576 -0.18975864 169.16934327 -0.19548892 175.47965431 -0.21662521 C181.41484089 -0.23596126 187.34972253 -0.23616364 193.28491974 -0.22159195 C195.46419659 -0.21949694 197.64349229 -0.22424572 199.82273674 -0.23631287 C202.79641026 -0.25171326 205.76902559 -0.24249123 208.74267578 -0.22705078 C209.60639764 -0.23733791 210.47011949 -0.24762503 211.36001474 -0.25822389 C216.73080143 -0.19653978 219.81049386 0.68207234 224.06181335 4.26742554 C226.45548399 7.66489354 227.31612687 10.23778993 227.06181335 14.32992554 C226.32724626 18.55166829 224.43082909 20.60355263 221.06181335 23.26742554 C216.85101563 25.71766168 212.87016546 25.54912366 208.11053467 25.52812195 C206.73862627 25.53386027 206.73862627 25.53386027 205.33900255 25.53971452 C202.26746278 25.55005173 199.19610968 25.54605098 196.1245575 25.54208374 C193.92520982 25.5464298 191.72586367 25.55161259 189.52651978 25.55757141 C183.54725576 25.57098375 177.56805487 25.57153761 171.58877873 25.56900811 C166.60099032 25.56793996 161.61321476 25.57281776 156.62542909 25.57761353 C144.1877519 25.58935156 131.75010287 25.5884792 119.31242465 25.58205672 C108.51045507 25.57688717 97.70857565 25.5881436 86.90662391 25.60715494 C75.81539513 25.62652579 64.72420304 25.63449913 53.63295645 25.63103169 C47.40596873 25.62921611 41.1790636 25.63188244 34.95208931 25.64574623 C29.09736548 25.65829303 23.24282253 25.65641027 17.38810158 25.64333534 C15.23743377 25.64096317 13.08675337 25.64372704 10.93610001 25.65195847 C8.00388015 25.66237336 5.07227313 25.65436747 2.14007568 25.64164734 C1.28579595 25.64902162 0.43151622 25.65639591 -0.44865078 25.66399366 C-6.51042722 25.60854028 -9.77149064 24.31700284 -14.25068665 20.07992554 C-16.44489137 16.42291766 -16.72393928 13.37512247 -15.93818665 9.26742554 C-12.64603747 1.04508223 -8.29995592 -0.02953383 0 0 Z " fill="#102A53" transform="translate(579.9381866455078,475.7325744628906)"/>
<path d="M0 0 C1.37085005 -0.00679667 1.37085005 -0.00679667 2.76939404 -0.01373065 C5.83859282 -0.02641361 8.90761504 -0.02475176 11.97683716 -0.02310181 C14.17456288 -0.0290846 16.37228649 -0.03588957 18.57000732 -0.04345703 C24.54520058 -0.06114909 30.52033658 -0.06581375 36.49555349 -0.0670886 C41.48076329 -0.06898607 46.46595971 -0.07634182 51.45116436 -0.08343279 C62.53905974 -0.09879535 73.62693251 -0.10476962 84.71483718 -0.10342209 C85.38008623 -0.10334218 86.04533529 -0.10326227 86.73074341 -0.10317993 C87.39680525 -0.10309817 88.06286709 -0.10301641 88.74911262 -0.10293217 C99.54396407 -0.10211924 110.338676 -0.12125873 121.13348709 -0.14945666 C132.21907039 -0.17818553 143.30459612 -0.19163069 154.39021885 -0.19026911 C160.61335754 -0.1897587 166.83633835 -0.19548589 173.05944443 -0.21662521 C178.91174728 -0.23596172 184.7637409 -0.23616334 190.61605453 -0.22159195 C192.76469371 -0.21949709 194.91335201 -0.22424485 197.06195831 -0.23631287 C199.99398227 -0.25171521 202.92493327 -0.24249007 205.85693359 -0.22705078 C207.13398393 -0.24248147 207.13398393 -0.24248147 208.43683326 -0.25822389 C214.70039401 -0.1852781 218.29172137 1.59899747 222.86795044 6.01742554 C224.61938658 9.33593612 225.29886536 12.55176843 225.05545044 16.26742554 C223.04650589 20.21090928 220.92169815 23.10457687 217.05545044 25.26742554 C214.02287019 25.71624271 211.01320827 25.67620024 207.95231628 25.65510559 C207.02137648 25.66049113 206.09043667 25.66587667 205.13128656 25.6714254 C202.0043932 25.68576026 198.87791988 25.67858757 195.75100708 25.67147827 C193.51224933 25.67717894 191.27349449 25.68414201 189.03474426 25.692276 C182.94802093 25.71025593 176.86144139 25.70902993 170.77469945 25.70333362 C165.6974338 25.70024877 160.62019605 25.70632636 155.54293436 25.71237236 C142.88220095 25.72723621 130.22155439 25.7235907 117.56082749 25.71150906 C106.56483337 25.70157644 95.56900752 25.71451686 84.57303936 25.73844325 C73.28292021 25.76282464 61.99287744 25.77204456 50.70272535 25.76579052 C44.36393413 25.76241452 38.02528194 25.76487876 31.68651009 25.78204155 C25.72667657 25.79747326 19.76716506 25.7935969 13.80734444 25.7747364 C11.61797651 25.77104009 9.42858493 25.77418916 7.23923874 25.78462219 C4.25430725 25.79776222 1.2704528 25.7863463 -1.71443176 25.76863098 C-2.58427529 25.77823599 -3.45411881 25.78784099 -4.35032123 25.79773706 C-8.39996476 25.7481621 -10.43763633 25.58744847 -13.93940067 23.3767252 C-17.64489075 19.47876579 -18.46350386 15.64448896 -18.33126831 10.26351929 C-17.61744636 6.57904439 -15.63187693 4.83260166 -12.94454956 2.26742554 C-8.76987452 -0.22408139 -4.73982219 -0.0171532 0 0 Z " fill="#102A51" transform="translate(581.9445495605469,646.7325744628906)"/>
<path d="M0 0 C0.86891373 -0.00511093 1.73782745 -0.01022186 2.6330719 -0.01548767 C5.49902273 -0.02936246 8.36473251 -0.02842854 11.23071289 -0.02612305 C13.22701608 -0.03001103 15.22331845 -0.03434591 17.21961975 -0.03910828 C21.40164879 -0.04656586 25.58359341 -0.04628246 29.765625 -0.04101562 C35.12005539 -0.03522046 40.47413993 -0.05215547 45.82851315 -0.0753603 C49.95066848 -0.0901043 54.07274064 -0.09096844 58.19491768 -0.08785057 C60.16884611 -0.08836341 62.14277924 -0.09359408 64.11668205 -0.10366249 C66.87879685 -0.11602293 69.64023941 -0.10923763 72.40234375 -0.09765625 C73.21448334 -0.10529999 74.02662292 -0.11294373 74.8633728 -0.12081909 C80.92593148 -0.06473983 85.06909345 1.25131217 89.64086914 5.4621582 C91.75233674 9.11662136 91.92908913 12.19945102 91.26586914 16.2746582 C89.67954253 20.47842373 88.21419044 23.09888349 84.26586914 25.2746582 C81.20583716 25.73085057 78.16794406 25.70492192 75.07861328 25.69458008 C74.14971786 25.70304962 73.22082245 25.71151917 72.26377869 25.72024536 C69.19272171 25.74364745 66.12216479 25.74463676 63.05102539 25.7434082 C60.9163747 25.75050772 58.78172593 25.75820641 56.64707947 25.76647949 C52.17238053 25.77993161 47.69785804 25.7814897 43.22314453 25.77563477 C37.48836454 25.7697374 31.75443077 25.8003289 26.01981449 25.84075165 C21.61115455 25.86659825 17.20269919 25.86950881 12.79397392 25.86585999 C10.67964997 25.86755401 8.56531684 25.87722357 6.45106697 25.89500427 C3.49430794 25.91713402 0.53927255 25.90752229 -2.41748047 25.88989258 C-3.72759598 25.90978745 -3.72759598 25.90978745 -5.06417847 25.93008423 C-9.48234832 25.86885866 -11.18259272 25.72047774 -14.73439026 22.8494873 C-18.03046868 18.60551754 -19.26256026 15.88095533 -19.11694336 10.3059082 C-18.40910817 6.550048 -16.50845578 4.86402813 -13.73413086 2.2746582 C-9.30662001 -0.10944466 -4.90701264 -0.01493154 0 0 Z " fill="#0D2952" transform="translate(582.734130859375,817.725341796875)"/>
<path d="M0 0 C8.51998045 5.23623798 12.46917348 12.14820477 14.8125 21.66796875 C15.97094737 28.51004851 14.44573606 34.72744673 10.88671875 40.65234375 C6.05563716 47.38090442 0.28033596 52.06818625 -7.75 54.3828125 C-17.83040775 55.63038772 -25.44299831 53.84378802 -33.5 47.7578125 C-39.97196491 41.84273759 -42.70965253 33.37812619 -43.1875 24.8203125 C-43.06051204 17.07404722 -39.71711947 10.37359321 -34.30078125 4.9140625 C-24.20933131 -3.41251503 -12.2647201 -5.76925978 0 0 Z " fill="#FAFAFB" transform="translate(622.75,233.6171875)"/>
<path d="M0 0 C2.875 2.125 2.875 2.125 5 5 C5.57414583 8.87024216 5.37630036 10.46885443 3.0925293 13.69238281 C2.19961182 14.60342773 1.30669434 15.51447266 0.38671875 16.453125 C-0.10339188 16.96127747 -0.5935025 17.46942993 -1.09846497 17.99298096 C-2.16264729 19.09404895 -3.23314258 20.18904267 -4.30914307 21.27856445 C-6.02933292 23.02986339 -7.71925898 24.8062283 -9.40380859 26.59179688 C-12.35598237 29.7148993 -15.34461133 32.79949985 -18.35327148 35.86816406 C-19.5894704 37.13644854 -20.81753582 38.41270557 -22.0378418 39.69628906 C-23.83311399 41.58264475 -25.6531745 43.44158728 -27.48046875 45.296875 C-28.01713669 45.87169617 -28.55380463 46.44651733 -29.10673523 47.03875732 C-31.95360492 49.87138679 -33.99705399 51.37822666 -38.08520508 51.61230469 C-42.51499838 50.91945021 -44.00665276 50.0201433 -47.15625 46.90625 C-48.0328125 46.04 -48.909375 45.17375 -49.8125 44.28125 C-50.699375 43.3634375 -51.58625 42.445625 -52.5 41.5 C-53.4178125 40.613125 -54.335625 39.72625 -55.28125 38.8125 C-62.58445889 31.42234815 -62.58445889 31.42234815 -62.6953125 26.5 C-62 23 -62 23 -60.375 20.5 C-57.25991849 18.5325801 -55.62829011 18.4076261 -52 19 C-48.20332641 21.50024846 -45.16536857 24.75133225 -42 28 C-41.401875 28.598125 -40.80375 29.19625 -40.1875 29.8125 C-39.795625 30.204375 -39.40375 30.59625 -39 31 C-32.22809398 28.09557078 -27.33385949 21.6167783 -22.625 16.125 C-19.61909048 12.62399949 -16.44231843 9.33000366 -13.1875 6.0625 C-12.46651123 5.33474365 -12.46651123 5.33474365 -11.73095703 4.59228516 C-7.78138861 0.65954131 -5.68216773 -0.66849032 0 0 Z " fill="#0EACA2" transform="translate(489,464)"/>
<path d="M0 0 C2.4375 1.5 2.4375 1.5 4 4 C4.7011423 8.19543453 4.93416716 10.57188516 2.57373047 14.18041992 C0.46477462 16.59563469 -1.74103822 18.84954617 -4.03125 21.09375 C-4.85572632 21.92588013 -5.68020264 22.75801025 -6.52966309 23.61535645 C-8.27524892 25.36637742 -10.03094353 27.10737114 -11.79589844 28.83886719 C-14.49108695 31.49122858 -17.14095653 34.1835354 -19.7890625 36.8828125 C-21.49223256 38.58069595 -23.19788269 40.27609599 -24.90625 41.96875 C-25.69616333 42.77485718 -26.48607666 43.58096436 -27.29992676 44.41149902 C-33.57968375 50.4829402 -33.57968375 50.4829402 -38.40039062 50.62329102 C-42.75679097 49.86895772 -44.10284411 48.7212696 -47 45.4375 C-50.02643346 42.13593623 -52.98892279 39.0476044 -56.4375 36.1875 C-59.30412618 33.70386437 -61.60817116 31.61875497 -63 28 C-62.93096951 24.54847562 -62.64943318 22.74934598 -60.375 20.125 C-56.96503364 18.50975278 -54.75199434 18.5549143 -51 19 C-48.48889467 20.6747943 -46.57136316 22.76176853 -44.5625 25 C-44.02173828 25.57234375 -43.48097656 26.1446875 -42.92382812 26.734375 C-41.59937013 28.14087906 -40.29734401 29.56844799 -39 31 C-30.33814041 23.94964917 -22.26032167 15.92379704 -15 7.4375 C-10.4137417 2.1205878 -7.48051846 -1.08807541 0 0 Z " fill="#0B6BD4" transform="translate(489,637)"/>
<path d="M0 0 C2.31383847 3.4707577 2.24900584 4.77328034 2.24609566 8.86645794 C2.25007775 10.09858633 2.25405985 11.33071472 2.25816262 12.60018033 C2.25245617 13.97480257 2.24656497 15.34942405 2.24050903 16.7240448 C2.24138069 18.17856446 2.24313095 19.63308381 2.24568737 21.08760148 C2.25017267 25.09421737 2.24214103 29.10072692 2.23213124 33.10732925 C2.22351603 37.42429029 2.22641553 41.74124506 2.22793579 46.05821228 C2.22898587 53.54087438 2.22269648 61.02350167 2.21146011 68.50615501 C2.19522466 79.32488866 2.18999911 90.14360542 2.18748413 100.96234993 C2.18310395 118.51389062 2.1697861 136.06541275 2.15087891 153.61694336 C2.13252845 170.66935127 2.11836787 187.72175414 2.10986328 204.77416992 C2.10933783 205.82480419 2.10881239 206.87543847 2.10827102 207.95791014 C2.10566099 213.22849129 2.10313357 218.49907247 2.10064721 223.76965368 C2.07990466 267.51311531 2.04467036 311.2565567 2 355 C1.01 354.67 0.02 354.34 -1 354 C-0.67 237.18 -0.34 120.36 0 0 Z " fill="#272E4F" transform="translate(917,343)"/>
<path d="M0 0 C0.33 0 0.66 0 1 0 C1 115.5 1 231 1 350 C0.34 350.33 -0.32 350.66 -1 351 C-1.66 350.34 -2.32 349.68 -3 349 C-2.01 348.67 -1.02 348.34 0 348 C0 233.16 0 118.32 0 0 Z " fill="#153760" transform="translate(916,346)"/>
<path d="M0 0 C11.6827136 -0.04629062 23.36540547 -0.08185254 35.04819202 -0.10362434 C40.47267198 -0.11407242 45.8970893 -0.1282503 51.3215332 -0.15087891 C56.5540243 -0.17257077 61.78645507 -0.18456091 67.01898766 -0.18975449 C69.01772703 -0.19345682 71.01646301 -0.20068632 73.01517677 -0.21146011 C75.80942612 -0.2259264 78.60342446 -0.22797998 81.39770508 -0.22705078 C82.64387604 -0.23783661 82.64387604 -0.23783661 83.91522217 -0.24884033 C87.80308889 -0.23480165 89.68908501 -0.20727666 93 2 C93.495 2.99 93.495 2.99 94 4 C47.47 3.505 47.47 3.505 0 3 C0 2.01 0 1.02 0 0 Z " fill="#21315A" transform="translate(574,818)"/>
<path d="M0 0 C0.66 0 1.32 0 2 0 C6 5.41176471 6 5.41176471 6 8 C6.639375 8.268125 7.27875 8.53625 7.9375 8.8125 C10 10 10 10 11 13 C13.00016466 14.20882096 13.00016466 14.20882096 15 15 C14.34 15.66 13.68 16.32 13 17 C8.09488382 12.31397089 3.66585701 7.72790158 0 2 C0 1.34 0 0.68 0 0 Z " fill="#1C254B" transform="translate(307,981)"/>
<path d="M0 0 C1.12707478 3.38122435 0.97290788 5.5893502 0.6875 9.125 C0.60886719 10.20007813 0.53023437 11.27515625 0.44921875 12.3828125 C0.22685547 13.67832031 0.22685547 13.67832031 0 15 C-0.99 15.495 -0.99 15.495 -2 16 C-3.5955739 12.80885219 -3.38584417 9.47259755 -3 6 C-1.5 2.5 -1.5 2.5 0 0 Z " fill="#1C2D57" transform="translate(567,479)"/>
<path d="M0 0 C0 3.9765245 -1.38011503 5.0890167 -4 8 C-4.721875 8.53625 -5.44375 9.0725 -6.1875 9.625 C-8.29998833 10.95882513 -8.29998833 10.95882513 -9 14 C-10.32 13.67 -11.64 13.34 -13 13 C-8.71 8.71 -4.42 4.42 0 0 Z " fill="#1A69D3" transform="translate(734,765)"/>
<path d="M0 0 C0.66 0.99 1.32 1.98 2 3 C-1.33333333 5.66666667 -4.66666667 8.33333333 -8 11 C-8.66 10.67 -9.32 10.34 -10 10 C-6.7 6.7 -3.4 3.4 0 0 Z " fill="#27B5AB" transform="translate(480,466)"/>
<path d="M0 0 C0 0.33 0 0.66 0 1 C-2.64 1 -5.28 1 -8 1 C-8.2475 1.598125 -8.495 2.19625 -8.75 2.8125 C-10.16370012 5.28647521 -11.65055383 6.43370255 -14 8 C-14 4 -14 4 -12.0625 1.75 C-7.95050334 -0.59971238 -4.62631685 -0.36284838 0 0 Z " fill="#2877DA" transform="translate(703,853)"/>
<path d="M0 0 C5.27754845 0.53852535 9.30037439 1.65018719 14 4 C14.33 4.66 14.66 5.32 15 6 C14.41992188 5.79503906 13.83984375 5.59007812 13.2421875 5.37890625 C8.8378016 3.85990187 4.64322223 2.5952849 0 2 C0 1.34 0 0.68 0 0 Z " fill="#1F67CA" transform="translate(472,602)"/>
<path d="M0 0 C0 0.66 0 1.32 0 2 C-1.4096347 2.70180531 -2.82807641 3.38593958 -4.25 4.0625 C-5.03890625 4.44535156 -5.8278125 4.82820313 -6.640625 5.22265625 C-9.25993522 6.08564091 -10.44855176 5.93045933 -13 5 C-11.39967863 4.15930585 -9.79458829 3.32768495 -8.1875 2.5 C-6.84751953 1.80390625 -6.84751953 1.80390625 -5.48046875 1.09375 C-3 0 -3 0 0 0 Z " fill="#252F56" transform="translate(345,279)"/>
<path d="M0 0 C1.21236328 0.02707031 1.21236328 0.02707031 2.44921875 0.0546875 C3.37154297 0.08949219 3.37154297 0.08949219 4.3125 0.125 C2.3125 3.125 2.3125 3.125 0.4375 3.70703125 C-0.614375 3.82111328 -0.614375 3.82111328 -1.6875 3.9375 C-2.38875 4.02644531 -3.09 4.11539063 -3.8125 4.20703125 C-5.6875 4.125 -5.6875 4.125 -7.6875 2.125 C-4.48369983 -0.01086678 -3.66810033 -0.10632175 0 0 Z " fill="#448AE0" transform="translate(954.6875,746.875)"/>
<path d="M0 0 C5.01113235 1.4317521 6.94469549 3.98445693 10 8 C7 8 7 8 4.8125 6.125 C3 4 3 4 3 2 C2.01 1.67 1.02 1.34 0 1 C0 0.67 0 0.34 0 0 Z " fill="#262E54" transform="translate(889,292)"/>
<path d="M0 0 C0.66 0.66 1.32 1.32 2 2 C1.34 2 0.68 2 0 2 C0.061875 3.11375 0.12375 4.2275 0.1875 5.375 C0.125625 6.57125 0.06375 7.7675 0 9 C-0.99 9.66 -1.98 10.32 -3 11 C-2.25 3.375 -2.25 3.375 0 0 Z " fill="#DFE1E7" transform="translate(583,247)"/>
<path d="M0 0 C0 0.99 0 1.98 0 3 C-2.8125 4.125 -2.8125 4.125 -6 5 C-6.99 4.34 -7.98 3.68 -9 3 C-2.25 0 -2.25 0 0 0 Z " fill="#FCA434" transform="translate(433,762)"/>
<path d="M0 0 C0.66 0.66 1.32 1.32 2 2 C-0.97 4.475 -0.97 4.475 -4 7 C-4.66 6.34 -5.32 5.68 -6 5 C-4.02 3.35 -2.04 1.7 0 0 Z " fill="#186BD3" transform="translate(905,935)"/>
<path d="M0 0 C3.465 1.98 3.465 1.98 7 4 C6.67 4.66 6.34 5.32 6 6 C3.5625 5.25 3.5625 5.25 1 4 C0.1875 1.875 0.1875 1.875 0 0 Z " fill="#FDA230" transform="translate(497,768)"/>
<path d="M0 0 C0.70125 0.144375 1.4025 0.28875 2.125 0.4375 C5.07556141 1.01478375 8.03270151 1.51695141 11 2 C11 2.33 11 2.66 11 3 C7.7 3 4.4 3 1 3 C0.67 2.01 0.34 1.02 0 0 Z " fill="#1F2A52" transform="translate(356,973)"/>
<path d="M0 0 C2 2 2 2 2.125 4.625 C2.08375 5.40875 2.0425 6.1925 2 7 C1.01 7 0.02 7 -1 7 C-0.67 4.69 -0.34 2.38 0 0 Z " fill="#DFEEFA" transform="translate(973,946)"/>
<path d="M0 0 C0 0.66 0 1.32 0 2 C-3.37817425 2.84454356 -5.67465243 3.10844919 -9 2 C-5.86501708 0.14223235 -3.62528568 -0.20140476 0 0 Z " fill="#2072D7" transform="translate(437,590)"/>
<path d="M0 0 C2.64 0.99 5.28 1.98 8 3 C7.67 3.66 7.34 4.32 7 5 C4.69 4.34 2.38 3.68 0 3 C0 2.01 0 1.02 0 0 Z " fill="#2B375C" transform="translate(480,353)"/>
<path d="M0 0 C1.60031344 3.20062687 0.03173691 5.72271806 -1 9 C-1.66 9 -2.32 9 -3 9 C-2.25 2.25 -2.25 2.25 0 0 Z " fill="#14224A" transform="translate(471,265)"/>
<path d="M0 0 C1.32 0.33 2.64 0.66 4 1 C3.67 2.98 3.34 4.96 3 7 C0.64046906 4.64046906 0.50858587 3.22104383 0 0 Z " fill="#277BDA" transform="translate(732,931)"/>
<path d="M0 0 C0.33 0 0.66 0 1 0 C0.67 2.31 0.34 4.62 0 7 C-0.99 7 -1.98 7 -3 7 C-1.125 1.125 -1.125 1.125 0 0 Z " fill="#0F61CA" transform="translate(393,626)"/>
<path d="M0 0 C0.66 0 1.32 0 2 0 C2.33 2.97 2.66 5.94 3 9 C0 6 0 6 -0.1875 2.8125 C-0.125625 1.884375 -0.06375 0.95625 0 0 Z " fill="#2DB2A7" transform="translate(399,495)"/>
</svg>
